<?xml version="1.0" standalone="no"?>
<!DOCTYPE svg PUBLIC "-//W3C//DTD SVG 20010904//EN"
 "http://www.w3.org/TR/2001/REC-SVG-20010904/DTD/svg10.dtd">
<svg version="1.0" xmlns="http://www.w3.org/2000/svg"
 width="1500pt" height="1000pt" viewBox="0 0 750.000000 500.000000"
 preserveAspectRatio="xMidYMid meet">

<g transform="translate(0.000000,500.000000) scale(0.100000,-0.100000)"
fill="#0000FF" stroke="none"> <!-- Changed to blue -->
<path d="M2862 3168 c-572 -990 -1137 -1969 -1151 -1995 l-12 -23 420 0 419 0
478 838 c262 460 480 841 484 845 4 4 85 -125 181 -288 96 -162 177 -295 181
-295 8 0 371 631 371 645 0 6 -75 151 -167 323 l-168 312 -413 0 -413 0 -210
-362z"/>
<path d="M4360 2699 c-261 -457 -480 -838 -486 -847 -9 -12 -45 44 -185 281
-96 163 -176 297 -179 297 -3 0 -90 -146 -192 -324 l-187 -324 171 -316 170
-316 416 2 415 3 419 725 c231 399 538 931 684 1182 145 252 264 460 264 463
0 3 -188 5 -418 5 l-418 0 -474 -831z"/>
</g>
</svg>

